999
Generated by Autodesk CAM - http://cam.autodesk.com
0
SECTION
2
HEADER
9
$ACADVER
1
AC1006
9
$ANGBASE
50
0
9
$ANGDIR
70
0
0
ENDSEC
0
SECTION
2
BLOCKS
0
ENDSEC
9
$EXTMIN
10
-178.225
20
-11.225
30
0
9
$EXTMAX
10
178.225
20
11.675
30
15
0
SECTION
2
ENTITIES
0
POLYLINE
8
1
62
1
66
1
70
1
0
VERTEX
8
1
10
89.675
20
1.275
0
VERTEX
8
1
10
89.225
20
1.275
0
VERTEX
8
1
10
89.225
20
-1.275
0
VERTEX
8
1
10
93.775
20
-1.275
0
VERTEX
8
1
10
93.775
20
1.275
0
VERTEX
8
1
10
89.675
20
1.275
0
SEQEND
8
1
0
POLYLINE
8
1
62
1
66
1
70
1
0
VERTEX
8
1
10
-89.675
20
1.275
0
VERTEX
8
1
10
-93.775
20
1.275
0
VERTEX
8
1
10
-93.775
20
-1.275
0
VERTEX
8
1
10
-89.225
20
-1.275
0
VERTEX
8
1
10
-89.225
20
1.275
0
VERTEX
8
1
10
-89.675
20
1.275
0
SEQEND
8
1
0
POLYLINE
8
1
62
1
66
1
70
1
0
VERTEX
8
1
10
-89.675
20
11.225
0
VERTEX
8
1
10
161
20
11.225
42
-0.432
0
VERTEX
8
1
10
165.225
20
6.736
42
0.432
0
VERTEX
8
1
10
169
20
2.725
0
VERTEX
8
1
10
169.772
20
2.725
42
0.169
0
VERTEX
8
1
10
167.828
20
7.855
42
-0.637
0
VERTEX
8
1
10
168
20
8.225
0
VERTEX
8
1
10
170
20
8.225
42
-1
0
VERTEX
8
1
10
170
20
-8.225
0
VERTEX
8
1
10
168
20
-8.225
42
-0.637
0
VERTEX
8
1
10
167.828
20
-7.855
42
0.169
0
VERTEX
8
1
10
169.772
20
-2.725
0
VERTEX
8
1
10
169
20
-2.725
42
0.432
0
VERTEX
8
1
10
165.225
20
-6.736
42
-0.432
0
VERTEX
8
1
10
161
20
-11.225
0
VERTEX
8
1
10
-161
20
-11.225
42
-0.432
0
VERTEX
8
1
10
-165.225
20
-6.736
42
0.432
0
VERTEX
8
1
10
-169
20
-2.725
0
VERTEX
8
1
10
-169.772
20
-2.725
42
0.169
0
VERTEX
8
1
10
-167.828
20
-7.855
42
-0.637
0
VERTEX
8
1
10
-168
20
-8.225
0
VERTEX
8
1
10
-170
20
-8.225
42
-1
0
VERTEX
8
1
10
-170
20
8.225
0
VERTEX
8
1
10
-168
20
8.225
42
-0.637
0
VERTEX
8
1
10
-167.828
20
7.855
42
0.169
0
VERTEX
8
1
10
-169.772
20
2.725
0
VERTEX
8
1
10
-169
20
2.725
42
0.432
0
VERTEX
8
1
10
-165.225
20
6.736
42
-0.432
0
VERTEX
8
1
10
-161
20
11.225
0
VERTEX
8
1
10
-89.675
20
11.225
0
SEQEND
8
1
0
POLYLINE
8
1
62
1
66
1
70
0
0
VERTEX
8
1
10
-35
20
-4.725
0
VERTEX
8
1
10
-84.889
20
-4.725
42
-0.23
0
VERTEX
8
1
10
-89
20
-6.725
0
VERTEX
8
1
10
-92.5
20
-6.725
42
-1
0
VERTEX
8
1
10
-92.5
20
6.725
0
VERTEX
8
1
10
-89
20
6.725
42
-0.23
0
VERTEX
8
1
10
-84.889
20
4.725
0
VERTEX
8
1
10
-35
20
4.725
0
SEQEND
8
1
0
POLYLINE
8
1
62
1
66
1
70
0
0
VERTEX
8
1
10
-105
20
-2.725
0
VERTEX
8
1
10
-140.775
20
-2.725
0
VERTEX
8
1
10
-140.775
20
-5.5
42
-0.414
0
VERTEX
8
1
10
-141
20
-5.725
0
VERTEX
8
1
10
-144
20
-5.725
42
-1
0
VERTEX
8
1
10
-144
20
5.725
0
VERTEX
8
1
10
-141
20
5.725
42
-0.414
0
VERTEX
8
1
10
-140.775
20
5.5
0
VERTEX
8
1
10
-140.775
20
2.725
0
VERTEX
8
1
10
-105
20
2.725
0
SEQEND
8
1
0
POLYLINE
8
1
62
1
66
1
70
0
0
VERTEX
8
1
10
-91.5
20
0.225
0
VERTEX
8
1
10
-89
20
0.225
0
SEQEND
8
1
0
POLYLINE
8
1
62
1
66
1
70
0
0
VERTEX
8
1
10
35
20
4.725
0
VERTEX
8
1
10
84.889
20
4.725
42
-0.23
0
VERTEX
8
1
10
89
20
6.725
0
VERTEX
8
1
10
92.5
20
6.725
42
-1
0
VERTEX
8
1
10
92.5
20
-6.725
0
VERTEX
8
1
10
89
20
-6.725
42
-0.23
0
VERTEX
8
1
10
84.889
20
-4.725
0
VERTEX
8
1
10
35
20
-4.725
0
SEQEND
8
1
0
POLYLINE
8
1
62
1
66
1
70
0
0
VERTEX
8
1
10
105
20
2.725
0
VERTEX
8
1
10
140.775
20
2.725
0
VERTEX
8
1
10
140.775
20
5.5
42
-0.414
0
VERTEX
8
1
10
141
20
5.725
0
VERTEX
8
1
10
144
20
5.725
42
-1
0
VERTEX
8
1
10
144
20
-5.725
0
VERTEX
8
1
10
141
20
-5.725
42
-0.414
0
VERTEX
8
1
10
140.775
20
-5.5
0
VERTEX
8
1
10
140.775
20
-2.725
0
VERTEX
8
1
10
105
20
-2.725
0
SEQEND
8
1
0
POLYLINE
8
1
62
1
66
1
70
0
0
VERTEX
8
1
10
91.5
20
-0.225
0
VERTEX
8
1
10
89
20
-0.225
0
SEQEND
8
1
0
ENDSEC
0
EOF
