999
Generated by Autodesk CAM - http://cam.autodesk.com
0
SECTION
2
HEADER
9
$ACADVER
1
AC1006
9
$ANGBASE
50
0
9
$ANGDIR
70
0
0
ENDSEC
0
SECTION
2
BLOCKS
0
ENDSEC
9
$EXTMIN
10
-78.095
20
-29.575
30
0
9
$EXTMAX
10
78.095
20
4.125
30
15
0
SECTION
2
ENTITIES
0
POLYLINE
8
1
62
1
66
1
70
1
0
VERTEX
8
1
10
68.501
20
-23.674
42
0.598
0
VERTEX
8
1
10
72.718
20
-21.407
42
-0.414
0
VERTEX
8
1
10
72.943
20
-21.182
0
VERTEX
8
1
10
76.87
20
-21.182
42
-0.457
0
VERTEX
8
1
10
78.082
20
-22.583
42
-0.372
0
VERTEX
8
1
10
70
20
-29.575
0
VERTEX
8
1
10
53.842
20
-29.575
42
-0.053
0
VERTEX
8
1
10
53.795
20
-29.57
0
VERTEX
8
1
10
52.078
20
-29.201
42
-0.212
0
VERTEX
8
1
10
51.275
20
-28.615
0
VERTEX
8
1
10
50.332
20
-26.983
42
-0.092
0
VERTEX
8
1
10
47.529
20
-27.886
42
-0.032
0
VERTEX
8
1
10
47.5
20
-27.888
0
VERTEX
8
1
10
45.5
20
-27.888
42
-0.032
0
VERTEX
8
1
10
45.471
20
-27.886
42
-0.154
0
VERTEX
8
1
10
41.064
20
-25.842
42
-0.352
0
VERTEX
8
1
10
40.829
20
-24.325
0
VERTEX
8
1
10
42.891
20
-20.755
42
-0.414
0
VERTEX
8
1
10
43.198
20
-20.672
0
VERTEX
8
1
10
44.064
20
-21.172
42
-0.132
0
VERTEX
8
1
10
44.146
20
-21.255
42
0.173
0
VERTEX
8
1
10
45.54
20
-22.438
0
VERTEX
8
1
10
47.46
20
-22.438
42
0.169
0
VERTEX
8
1
10
48.832
20
-21.292
42
0.419
0
VERTEX
8
1
10
48.032
20
-18.209
0
VERTEX
8
1
10
43.763
20
-15.744
0
VERTEX
8
1
10
39.235
20
-23.586
42
-0.305
0
VERTEX
8
1
10
33.999
20
-26.15
42
0.031
0
VERTEX
8
1
10
2.947
20
-23.843
42
-0.411
0
VERTEX
8
1
10
2.725
20
-23.618
0
VERTEX
8
1
10
2.725
20
-23.05
42
0.414
0
VERTEX
8
1
10
1
20
-21.325
0
VERTEX
8
1
10
-1
20
-21.325
42
0.414
0
VERTEX
8
1
10
-2.725
20
-23.05
0
VERTEX
8
1
10
-2.725
20
-23.618
42
-0.411
0
VERTEX
8
1
10
-2.947
20
-23.843
42
0.031
0
VERTEX
8
1
10
-33.999
20
-26.15
42
-0.305
0
VERTEX
8
1
10
-39.235
20
-23.586
0
VERTEX
8
1
10
-43.763
20
-15.744
0
VERTEX
8
1
10
-48.032
20
-18.209
42
0.419
0
VERTEX
8
1
10
-48.832
20
-21.292
42
0.169
0
VERTEX
8
1
10
-47.46
20
-22.438
0
VERTEX
8
1
10
-45.54
20
-22.438
42
0.173
0
VERTEX
8
1
10
-44.146
20
-21.255
42
-0.132
0
VERTEX
8
1
10
-44.064
20
-21.172
0
VERTEX
8
1
10
-43.198
20
-20.672
42
-0.414
0
VERTEX
8
1
10
-42.891
20
-20.755
0
VERTEX
8
1
10
-40.829
20
-24.325
42
-0.352
0
VERTEX
8
1
10
-41.064
20
-25.842
42
-0.154
0
VERTEX
8
1
10
-45.471
20
-27.886
42
-0.032
0
VERTEX
8
1
10
-45.5
20
-27.888
0
VERTEX
8
1
10
-47.5
20
-27.888
42
-0.032
0
VERTEX
8
1
10
-47.529
20
-27.886
42
-0.092
0
VERTEX
8
1
10
-50.332
20
-26.983
0
VERTEX
8
1
10
-51.275
20
-28.615
42
-0.212
0
VERTEX
8
1
10
-52.078
20
-29.201
0
VERTEX
8
1
10
-53.795
20
-29.57
42
-0.053
0
VERTEX
8
1
10
-53.842
20
-29.575
0
VERTEX
8
1
10
-70
20
-29.575
42
-0.372
0
VERTEX
8
1
10
-78.082
20
-22.584
42
-0.457
0
VERTEX
8
1
10
-76.87
20
-21.182
0
VERTEX
8
1
10
-72.943
20
-21.182
42
-0.414
0
VERTEX
8
1
10
-72.718
20
-21.407
42
1
0
VERTEX
8
1
10
-67.282
20
-21.407
42
0.301
0
VERTEX
8
1
10
-68.937
20
-18.906
42
-0.41
0
VERTEX
8
1
10
-70.208
20
-15.822
42
-0.11
0
VERTEX
8
1
10
-65.657
20
-9.244
0
VERTEX
8
1
10
-65.677
20
-9.214
0
VERTEX
8
1
10
-66.321
20
-9.645
42
-0.358
0
VERTEX
8
1
10
-66.605
20
-9.618
0
VERTEX
8
1
10
-66.928
20
-9.295
42
-0.472
0
VERTEX
8
1
10
-66.668
20
-6.643
0
VERTEX
8
1
10
-64.47
20
-5.169
42
-0.452
0
VERTEX
8
1
10
-61.261
20
-6.017
0
VERTEX
8
1
10
-61.177
20
-6.185
42
-0.011
0
VERTEX
8
1
10
-60.461
20
-5.857
42
-0.042
0
VERTEX
8
1
10
-59.711
20
-5.604
42
-0.058
0
VERTEX
8
1
10
-2.725
20
1.61
0
VERTEX
8
1
10
-2.725
20
2.4
42
-0.414
0
VERTEX
8
1
10
-1
20
4.125
0
VERTEX
8
1
10
1
20
4.125
42
-0.414
0
VERTEX
8
1
10
2.725
20
2.4
0
VERTEX
8
1
10
2.725
20
1.61
42
-0.058
0
VERTEX
8
1
10
59.711
20
-5.604
42
-0.042
0
VERTEX
8
1
10
60.461
20
-5.857
42
-0.011
0
VERTEX
8
1
10
61.177
20
-6.185
0
VERTEX
8
1
10
61.261
20
-6.017
42
-0.452
0
VERTEX
8
1
10
64.47
20
-5.169
0
VERTEX
8
1
10
66.668
20
-6.643
42
-0.472
0
VERTEX
8
1
10
66.928
20
-9.295
0
VERTEX
8
1
10
66.605
20
-9.618
42
-0.358
0
VERTEX
8
1
10
66.321
20
-9.645
0
VERTEX
8
1
10
65.677
20
-9.214
0
VERTEX
8
1
10
65.657
20
-9.244
42
-0.11
0
VERTEX
8
1
10
70.208
20
-15.822
42
-0.41
0
VERTEX
8
1
10
68.937
20
-18.906
42
0.598
0
VERTEX
8
1
10
68.501
20
-23.674
42
0.598
0
SEQEND
8
1
0
ENDSEC
0
EOF
