999
Generated by Autodesk CAM - http://cam.autodesk.com
0
SECTION
2
HEADER
9
$ACADVER
1
AC1006
9
$ANGBASE
50
0
9
$ANGDIR
70
0
0
ENDSEC
0
SECTION
2
BLOCKS
0
ENDSEC
9
$EXTMIN
10
-148.725
20
-120.075
30
0
9
$EXTMAX
10
148.575
20
120.075
30
15
0
SECTION
2
ENTITIES
0
POLYLINE
8
1
62
1
66
1
70
1
0
VERTEX
8
1
10
128.697
20
64.023
0
VERTEX
8
1
10
128.605
20
63.178
0
VERTEX
8
1
10
139.391
20
62.001
0
VERTEX
8
1
10
139.917
20
66.822
0
VERTEX
8
1
10
129.131
20
67.999
0
VERTEX
8
1
10
128.697
20
64.023
0
SEQEND
8
1
0
POLYLINE
8
1
62
1
66
1
70
1
0
VERTEX
8
1
10
81.188
20
68.475
0
VERTEX
8
1
10
88.388
20
68.475
0
VERTEX
8
1
10
88.388
20
71.525
0
VERTEX
8
1
10
81.038
20
71.525
0
VERTEX
8
1
10
81.038
20
68.475
0
VERTEX
8
1
10
81.188
20
68.475
0
SEQEND
8
1
0
POLYLINE
8
1
62
1
66
1
70
1
0
VERTEX
8
1
10
62.103
20
68.625
0
VERTEX
8
1
10
62.103
20
68.475
0
VERTEX
8
1
10
66.953
20
68.475
0
VERTEX
8
1
10
66.953
20
71.525
0
VERTEX
8
1
10
62.103
20
71.525
0
VERTEX
8
1
10
62.103
20
68.625
0
SEQEND
8
1
0
POLYLINE
8
1
62
1
66
1
70
1
0
VERTEX
8
1
10
-2.675
20
68.628
0
VERTEX
8
1
10
-2.675
20
68.475
0
VERTEX
8
1
10
2.675
20
68.475
0
VERTEX
8
1
10
2.675
20
71.525
0
VERTEX
8
1
10
-2.675
20
71.525
0
VERTEX
8
1
10
-2.675
20
68.628
0
SEQEND
8
1
0
POLYLINE
8
1
62
1
66
1
70
1
0
VERTEX
8
1
10
-66.953
20
68.628
0
VERTEX
8
1
10
-66.953
20
68.475
0
VERTEX
8
1
10
-62.103
20
68.475
0
VERTEX
8
1
10
-62.103
20
71.525
0
VERTEX
8
1
10
-66.953
20
71.525
0
VERTEX
8
1
10
-66.953
20
68.628
0
SEQEND
8
1
0
POLYLINE
8
1
62
1
66
1
70
1
0
VERTEX
8
1
10
-81.038
20
68.625
0
VERTEX
8
1
10
-81.038
20
71.525
0
VERTEX
8
1
10
-88.388
20
71.525
0
VERTEX
8
1
10
-88.388
20
68.475
0
VERTEX
8
1
10
-81.038
20
68.475
0
VERTEX
8
1
10
-81.038
20
68.625
0
SEQEND
8
1
0
POLYLINE
8
1
62
1
66
1
70
1
0
VERTEX
8
1
10
-128.632
20
63.425
0
VERTEX
8
1
10
-129.131
20
67.999
0
VERTEX
8
1
10
-139.917
20
66.822
0
VERTEX
8
1
10
-139.391
20
62.001
0
VERTEX
8
1
10
-128.605
20
63.178
0
VERTEX
8
1
10
-128.632
20
63.425
0
SEQEND
8
1
0
POLYLINE
8
1
62
1
66
1
70
1
0
VERTEX
8
1
10
-148.575
20
63.425
0
VERTEX
8
1
10
-148.575
20
95
42
-0.414
0
VERTEX
8
1
10
-123.5
20
120.075
0
VERTEX
8
1
10
123.5
20
120.075
42
-0.414
0
VERTEX
8
1
10
148.575
20
95
0
VERTEX
8
1
10
148.575
20
-70
42
-0.414
0
VERTEX
8
1
10
98.5
20
-120.075
0
VERTEX
8
1
10
-98.5
20
-120.075
42
-0.414
0
VERTEX
8
1
10
-148.575
20
-70
0
VERTEX
8
1
10
-148.575
20
63.425
0
SEQEND
8
1
0
ENDSEC
0
EOF
