999
Generated by Autodesk CAM - http://cam.autodesk.com
0
SECTION
2
HEADER
9
$ACADVER
1
AC1006
9
$ANGBASE
50
0
9
$ANGDIR
70
0
0
ENDSEC
0
SECTION
2
BLOCKS
0
ENDSEC
9
$EXTMIN
10
-177.575
20
-120.075
30
0
9
$EXTMAX
10
177.725
20
120.075
30
15
0
SECTION
2
ENTITIES
0
POLYLINE
8
1
62
1
66
1
70
1
0
VERTEX
8
1
10
-157.651
20
59.307
0
VERTEX
8
1
10
-158.161
20
63.123
0
VERTEX
8
1
10
-168.916
20
61.684
0
VERTEX
8
1
10
-168.273
20
56.877
0
VERTEX
8
1
10
-157.518
20
58.316
0
VERTEX
8
1
10
-157.651
20
59.307
0
SEQEND
8
1
0
POLYLINE
8
1
62
1
66
1
70
1
0
VERTEX
8
1
10
-81.038
20
68.625
0
VERTEX
8
1
10
-81.038
20
71.525
0
VERTEX
8
1
10
-88.388
20
71.525
0
VERTEX
8
1
10
-88.388
20
68.475
0
VERTEX
8
1
10
-81.038
20
68.475
0
VERTEX
8
1
10
-81.038
20
68.625
0
SEQEND
8
1
0
POLYLINE
8
1
62
1
66
1
70
1
0
VERTEX
8
1
10
-66.953
20
68.628
0
VERTEX
8
1
10
-66.953
20
68.475
0
VERTEX
8
1
10
-62.103
20
68.475
0
VERTEX
8
1
10
-62.103
20
71.525
0
VERTEX
8
1
10
-66.953
20
71.525
0
VERTEX
8
1
10
-66.953
20
68.628
0
SEQEND
8
1
0
POLYLINE
8
1
62
1
66
1
70
1
0
VERTEX
8
1
10
-2.675
20
68.628
0
VERTEX
8
1
10
-2.675
20
68.475
0
VERTEX
8
1
10
2.675
20
68.475
0
VERTEX
8
1
10
2.675
20
71.525
0
VERTEX
8
1
10
-2.675
20
71.525
0
VERTEX
8
1
10
-2.675
20
68.628
0
SEQEND
8
1
0
POLYLINE
8
1
62
1
66
1
70
1
0
VERTEX
8
1
10
62.103
20
68.628
0
VERTEX
8
1
10
62.103
20
68.475
0
VERTEX
8
1
10
66.953
20
68.475
0
VERTEX
8
1
10
66.953
20
71.525
0
VERTEX
8
1
10
62.103
20
71.525
0
VERTEX
8
1
10
62.103
20
68.628
0
SEQEND
8
1
0
POLYLINE
8
1
62
1
66
1
70
1
0
VERTEX
8
1
10
81.188
20
68.475
0
VERTEX
8
1
10
88.388
20
68.475
0
VERTEX
8
1
10
88.388
20
71.525
0
VERTEX
8
1
10
81.038
20
71.525
0
VERTEX
8
1
10
81.038
20
68.475
0
VERTEX
8
1
10
81.188
20
68.475
0
SEQEND
8
1
0
POLYLINE
8
1
62
1
66
1
70
1
0
VERTEX
8
1
10
157.676
20
58.295
0
VERTEX
8
1
10
168.273
20
56.877
0
VERTEX
8
1
10
168.916
20
61.684
0
VERTEX
8
1
10
158.161
20
63.123
0
VERTEX
8
1
10
157.518
20
58.316
0
VERTEX
8
1
10
157.676
20
58.295
0
SEQEND
8
1
0
POLYLINE
8
1
62
1
66
1
70
1
0
VERTEX
8
1
10
177.575
20
58.295
0
VERTEX
8
1
10
177.575
20
-70
42
-0.414
0
VERTEX
8
1
10
127.5
20
-120.075
0
VERTEX
8
1
10
-127.5
20
-120.075
42
-0.414
0
VERTEX
8
1
10
-177.575
20
-70
0
VERTEX
8
1
10
-177.575
20
80
42
-0.303
0
VERTEX
8
1
10
-172.529
20
87.569
42
0.303
0
VERTEX
8
1
10
-167.575
20
95
42
-0.414
0
VERTEX
8
1
10
-142.5
20
120.075
0
VERTEX
8
1
10
142.5
20
120.075
42
-0.414
0
VERTEX
8
1
10
167.575
20
95
42
0.303
0
VERTEX
8
1
10
172.529
20
87.569
42
-0.303
0
VERTEX
8
1
10
177.575
20
80
0
VERTEX
8
1
10
177.575
20
58.295
0
SEQEND
8
1
0
ENDSEC
0
EOF
