999
Generated by Autodesk CAM - http://cam.autodesk.com
0
SECTION
2
HEADER
9
$ACADVER
1
AC1006
9
$ANGBASE
50
0
9
$ANGDIR
70
0
0
ENDSEC
0
SECTION
2
BLOCKS
0
ENDSEC
9
$EXTMIN
10
0
20
0
30
0
9
$EXTMAX
10
301.075
20
21.075
30
15
0
SECTION
2
ENTITIES
0
POLYLINE
8
1
62
1
66
1
70
1
0
VERTEX
8
1
10
12.925
20
9.5
0
VERTEX
8
1
10
12.925
20
12.5
42
0.414
0
VERTEX
8
1
10
12.5
20
12.925
0
VERTEX
8
1
10
7.5
20
12.925
42
0.414
0
VERTEX
8
1
10
7.075
20
12.5
0
VERTEX
8
1
10
7.075
20
9.5
42
0.414
0
VERTEX
8
1
10
7.5
20
9.075
0
VERTEX
8
1
10
12.5
20
9.075
42
0.414
0
VERTEX
8
1
10
12.925
20
9.5
0
SEQEND
8
1
0
POLYLINE
8
1
62
1
66
1
70
1
0
VERTEX
8
1
10
24.925
20
9.5
0
VERTEX
8
1
10
24.925
20
12.5
42
0.414
0
VERTEX
8
1
10
24.5
20
12.925
0
VERTEX
8
1
10
19.5
20
12.925
42
0.414
0
VERTEX
8
1
10
19.075
20
12.5
0
VERTEX
8
1
10
19.075
20
9.5
42
0.414
0
VERTEX
8
1
10
19.5
20
9.075
0
VERTEX
8
1
10
24.5
20
9.075
42
0.414
0
VERTEX
8
1
10
24.925
20
9.5
0
SEQEND
8
1
0
POLYLINE
8
1
62
1
66
1
70
1
0
VERTEX
8
1
10
36.925
20
9.5
0
VERTEX
8
1
10
36.925
20
12.5
42
0.414
0
VERTEX
8
1
10
36.5
20
12.925
0
VERTEX
8
1
10
31.5
20
12.925
42
0.414
0
VERTEX
8
1
10
31.075
20
12.5
0
VERTEX
8
1
10
31.075
20
9.5
42
0.414
0
VERTEX
8
1
10
31.5
20
9.075
0
VERTEX
8
1
10
36.5
20
9.075
42
0.414
0
VERTEX
8
1
10
36.925
20
9.5
0
SEQEND
8
1
0
POLYLINE
8
1
62
1
66
1
70
1
0
VERTEX
8
1
10
48.925
20
9.5
0
VERTEX
8
1
10
48.925
20
12.5
42
0.414
0
VERTEX
8
1
10
48.5
20
12.925
0
VERTEX
8
1
10
43.5
20
12.925
42
0.414
0
VERTEX
8
1
10
43.075
20
12.5
0
VERTEX
8
1
10
43.075
20
9.5
42
0.414
0
VERTEX
8
1
10
43.5
20
9.075
0
VERTEX
8
1
10
48.5
20
9.075
42
0.414
0
VERTEX
8
1
10
48.925
20
9.5
0
SEQEND
8
1
0
POLYLINE
8
1
62
1
66
1
70
1
0
VERTEX
8
1
10
60.925
20
9.5
0
VERTEX
8
1
10
60.925
20
12.5
42
0.414
0
VERTEX
8
1
10
60.5
20
12.925
0
VERTEX
8
1
10
55.5
20
12.925
42
0.414
0
VERTEX
8
1
10
55.075
20
12.5
0
VERTEX
8
1
10
55.075
20
9.5
42
0.414
0
VERTEX
8
1
10
55.5
20
9.075
0
VERTEX
8
1
10
60.5
20
9.075
42
0.414
0
VERTEX
8
1
10
60.925
20
9.5
0
SEQEND
8
1
0
POLYLINE
8
1
62
1
66
1
70
1
0
VERTEX
8
1
10
72.925
20
9.5
0
VERTEX
8
1
10
72.925
20
12.5
42
0.414
0
VERTEX
8
1
10
72.5
20
12.925
0
VERTEX
8
1
10
67.5
20
12.925
42
0.414
0
VERTEX
8
1
10
67.075
20
12.5
0
VERTEX
8
1
10
67.075
20
9.5
42
0.414
0
VERTEX
8
1
10
67.5
20
9.075
0
VERTEX
8
1
10
72.5
20
9.075
42
0.414
0
VERTEX
8
1
10
72.925
20
9.5
0
SEQEND
8
1
0
POLYLINE
8
1
62
1
66
1
70
1
0
VERTEX
8
1
10
84.925
20
9.5
0
VERTEX
8
1
10
84.925
20
12.5
42
0.414
0
VERTEX
8
1
10
84.5
20
12.925
0
VERTEX
8
1
10
79.5
20
12.925
42
0.414
0
VERTEX
8
1
10
79.075
20
12.5
0
VERTEX
8
1
10
79.075
20
9.5
42
0.414
0
VERTEX
8
1
10
79.5
20
9.075
0
VERTEX
8
1
10
84.5
20
9.075
42
0.414
0
VERTEX
8
1
10
84.925
20
9.5
0
SEQEND
8
1
0
POLYLINE
8
1
62
1
66
1
70
1
0
VERTEX
8
1
10
222.925
20
9.5
0
VERTEX
8
1
10
222.925
20
12.5
42
0.414
0
VERTEX
8
1
10
222.5
20
12.925
0
VERTEX
8
1
10
217.5
20
12.925
42
0.414
0
VERTEX
8
1
10
217.075
20
12.5
0
VERTEX
8
1
10
217.075
20
9.5
42
0.414
0
VERTEX
8
1
10
217.5
20
9.075
0
VERTEX
8
1
10
222.5
20
9.075
42
0.414
0
VERTEX
8
1
10
222.925
20
9.5
0
SEQEND
8
1
0
POLYLINE
8
1
62
1
66
1
70
1
0
VERTEX
8
1
10
234.925
20
9.5
0
VERTEX
8
1
10
234.925
20
12.5
42
0.414
0
VERTEX
8
1
10
234.5
20
12.925
0
VERTEX
8
1
10
229.5
20
12.925
42
0.414
0
VERTEX
8
1
10
229.075
20
12.5
0
VERTEX
8
1
10
229.075
20
9.5
42
0.414
0
VERTEX
8
1
10
229.5
20
9.075
0
VERTEX
8
1
10
234.5
20
9.075
42
0.414
0
VERTEX
8
1
10
234.925
20
9.5
0
SEQEND
8
1
0
POLYLINE
8
1
62
1
66
1
70
1
0
VERTEX
8
1
10
246.925
20
9.5
0
VERTEX
8
1
10
246.925
20
12.5
42
0.414
0
VERTEX
8
1
10
246.5
20
12.925
0
VERTEX
8
1
10
241.5
20
12.925
42
0.414
0
VERTEX
8
1
10
241.075
20
12.5
0
VERTEX
8
1
10
241.075
20
9.5
42
0.414
0
VERTEX
8
1
10
241.5
20
9.075
0
VERTEX
8
1
10
246.5
20
9.075
42
0.414
0
VERTEX
8
1
10
246.925
20
9.5
0
SEQEND
8
1
0
POLYLINE
8
1
62
1
66
1
70
1
0
VERTEX
8
1
10
258.925
20
9.5
0
VERTEX
8
1
10
258.925
20
12.5
42
0.414
0
VERTEX
8
1
10
258.5
20
12.925
0
VERTEX
8
1
10
253.5
20
12.925
42
0.414
0
VERTEX
8
1
10
253.075
20
12.5
0
VERTEX
8
1
10
253.075
20
9.5
42
0.414
0
VERTEX
8
1
10
253.5
20
9.075
0
VERTEX
8
1
10
258.5
20
9.075
42
0.414
0
VERTEX
8
1
10
258.925
20
9.5
0
SEQEND
8
1
0
POLYLINE
8
1
62
1
66
1
70
1
0
VERTEX
8
1
10
270.925
20
9.5
0
VERTEX
8
1
10
270.925
20
12.5
42
0.414
0
VERTEX
8
1
10
270.5
20
12.925
0
VERTEX
8
1
10
265.5
20
12.925
42
0.414
0
VERTEX
8
1
10
265.075
20
12.5
0
VERTEX
8
1
10
265.075
20
9.5
42
0.414
0
VERTEX
8
1
10
265.5
20
9.075
0
VERTEX
8
1
10
270.5
20
9.075
42
0.414
0
VERTEX
8
1
10
270.925
20
9.5
0
SEQEND
8
1
0
POLYLINE
8
1
62
1
66
1
70
1
0
VERTEX
8
1
10
282.925
20
9.5
0
VERTEX
8
1
10
282.925
20
12.5
42
0.414
0
VERTEX
8
1
10
282.5
20
12.925
0
VERTEX
8
1
10
277.5
20
12.925
42
0.414
0
VERTEX
8
1
10
277.075
20
12.5
0
VERTEX
8
1
10
277.075
20
9.5
42
0.414
0
VERTEX
8
1
10
277.5
20
9.075
0
VERTEX
8
1
10
282.5
20
9.075
42
0.414
0
VERTEX
8
1
10
282.925
20
9.5
0
SEQEND
8
1
0
POLYLINE
8
1
62
1
66
1
70
1
0
VERTEX
8
1
10
289.075
20
9.5
42
0.414
0
VERTEX
8
1
10
289.5
20
9.075
0
VERTEX
8
1
10
294.5
20
9.075
42
0.414
0
VERTEX
8
1
10
294.925
20
9.5
0
VERTEX
8
1
10
294.925
20
12.5
42
0.414
0
VERTEX
8
1
10
294.5
20
12.925
0
VERTEX
8
1
10
289.5
20
12.925
42
0.414
0
VERTEX
8
1
10
289.075
20
12.5
0
VERTEX
8
1
10
289.075
20
9.5
42
0.414
0
SEQEND
8
1
0
POLYLINE
8
1
62
1
66
1
70
1
0
VERTEX
8
1
10
289.075
20
0.925
0
VERTEX
8
1
10
1
20
0.925
42
-0.414
0
VERTEX
8
1
10
0.925
20
1
0
VERTEX
8
1
10
0.925
20
21
42
-0.414
0
VERTEX
8
1
10
1
20
21.075
0
VERTEX
8
1
10
301
20
21.075
42
-0.414
0
VERTEX
8
1
10
301.075
20
21
0
VERTEX
8
1
10
301.075
20
1
42
-0.414
0
VERTEX
8
1
10
301
20
0.925
0
VERTEX
8
1
10
289.075
20
0.925
0
SEQEND
8
1
0
ENDSEC
0
EOF
